<svg width="491" height="113" viewBox="0 0 491 113" fill="none" xmlns="http://www.w3.org/2000/svg">
<path d="M51.3765 9.48198C56.1981 11.8473 59.0797 14.6234 61.3765 19.482C62.1893 24.1207 62.4724 28.4358 60.2007 32.6773C55.9573 37.9185 51.5384 39.4426 44.939 40.2945C39.5712 41.2264 37.0426 42.4492 33.3765 46.482C30.4851 50.9154 29.8232 54.2264 30.3765 59.482C32.3895 65.4205 34.6749 68.7688 39.939 72.107C43.076 73.3618 45.6279 73.9077 48.939 74.4195C53.4435 75.16 56.205 76.0036 59.3765 79.482C62.2559 84.1956 61.9974 89.1267 61.3765 94.482C59.6188 98.2676 58.1205 99.9505 54.7515 102.357C48.8203 104.334 43.6051 104.576 37.939 101.794C33.5719 97.8535 32.1017 94.3306 31.439 88.5445C30.6779 83.5822 29.9332 80.2259 26.3765 76.482C22.3582 73.6664 18.7678 72.3722 13.8765 72.1695C8.95726 71.8364 6.42774 69.5536 2.90772 66.271C-0.335523 62.4817 -0.0151118 57.9627 0.0288138 53.2124C0.691762 48.0057 3.62814 45.9306 7.56397 42.6695C10.384 41.4788 12.2931 41.2525 15.314 41.0445C21.32 40.5804 24.5365 38.5322 28.564 34.0445C30.3362 30.5611 31.0353 27.7846 31.814 23.982C32.9922 18.3661 34.117 15.3259 38.3765 11.482C42.6336 8.95237 46.5346 8.80833 51.3765 9.48198Z" fill="#F9FAFA"/>
<path d="M93.5952 83.675C89.5952 83.675 85.9952 82.8 82.7952 81.05C79.5952 79.25 77.0702 76.725 75.2202 73.475C73.4202 70.225 72.5202 66.475 72.5202 62.225C72.5202 57.975 73.4452 54.225 75.2952 50.975C77.1952 47.725 79.7702 45.225 83.0202 43.475C86.2702 41.675 89.8952 40.775 93.8952 40.775C97.8952 40.775 101.52 41.675 104.77 43.475C108.02 45.225 110.57 47.725 112.42 50.975C114.32 54.225 115.27 57.975 115.27 62.225C115.27 66.475 114.295 70.225 112.345 73.475C110.445 76.725 107.845 79.25 104.545 81.05C101.295 82.8 97.6452 83.675 93.5952 83.675ZM93.5952 74.525C95.4952 74.525 97.2702 74.075 98.9202 73.175C100.62 72.225 101.97 70.825 102.97 68.975C103.97 67.125 104.47 64.875 104.47 62.225C104.47 58.275 103.42 55.25 101.32 53.15C99.2702 51 96.7452 49.925 93.7452 49.925C90.7452 49.925 88.2202 51 86.1702 53.15C84.1702 55.25 83.1702 58.275 83.1702 62.225C83.1702 66.175 84.1452 69.225 86.0952 71.375C88.0952 73.475 90.5952 74.525 93.5952 74.525ZM174.572 40.85C179.672 40.85 183.772 42.425 186.872 45.575C190.022 48.675 191.597 53.025 191.597 58.625V83H181.097V60.05C181.097 56.8 180.272 54.325 178.622 52.625C176.972 50.875 174.722 50 171.872 50C169.022 50 166.747 50.875 165.047 52.625C163.397 54.325 162.572 56.8 162.572 60.05V83H152.072V60.05C152.072 56.8 151.247 54.325 149.597 52.625C147.947 50.875 145.697 50 142.847 50C139.947 50 137.647 50.875 135.947 52.625C134.297 54.325 133.472 56.8 133.472 60.05V83H122.972V41.45H133.472V46.475C134.822 44.725 136.547 43.35 138.647 42.35C140.797 41.35 143.147 40.85 145.697 40.85C148.947 40.85 151.847 41.55 154.397 42.95C156.947 44.3 158.922 46.25 160.322 48.8C161.672 46.4 163.622 44.475 166.172 43.025C168.772 41.575 171.572 40.85 174.572 40.85ZM212.061 47.45C213.411 45.55 215.261 43.975 217.611 42.725C220.011 41.425 222.736 40.775 225.786 40.775C229.336 40.775 232.536 41.65 235.386 43.4C238.286 45.15 240.561 47.65 242.211 50.9C243.911 54.1 244.761 57.825 244.761 62.075C244.761 66.325 243.911 70.1 242.211 73.4C240.561 76.65 238.286 79.175 235.386 80.975C232.536 82.775 229.336 83.675 225.786 83.675C222.736 83.675 220.036 83.05 217.686 81.8C215.386 80.55 213.511 78.975 212.061 77.075V102.8H201.561V41.45H212.061V47.45ZM234.036 62.075C234.036 59.575 233.511 57.425 232.461 55.625C231.461 53.775 230.111 52.375 228.411 51.425C226.761 50.475 224.961 50 223.011 50C221.111 50 219.311 50.5 217.611 51.5C215.961 52.45 214.611 53.85 213.561 55.7C212.561 57.55 212.061 59.725 212.061 62.225C212.061 64.725 212.561 66.9 213.561 68.75C214.611 70.6 215.961 72.025 217.611 73.025C219.311 73.975 221.111 74.45 223.011 74.45C224.961 74.45 226.761 73.95 228.411 72.95C230.111 71.95 231.461 70.525 232.461 68.675C233.511 66.825 234.036 64.625 234.036 62.075ZM291.016 61.325C291.016 62.825 290.916 64.175 290.716 65.375H260.341C260.591 68.375 261.641 70.725 263.491 72.425C265.341 74.125 267.616 74.975 270.316 74.975C274.216 74.975 276.991 73.3 278.641 69.95H289.966C288.766 73.95 286.466 77.25 283.066 79.85C279.666 82.4 275.491 83.675 270.541 83.675C266.541 83.675 262.941 82.8 259.741 81.05C256.591 79.25 254.116 76.725 252.316 73.475C250.566 70.225 249.691 66.475 249.691 62.225C249.691 57.925 250.566 54.15 252.316 50.9C254.066 47.65 256.516 45.15 259.666 43.4C262.816 41.65 266.441 40.775 270.541 40.775C274.491 40.775 278.016 41.625 281.116 43.325C284.266 45.025 286.691 47.45 288.391 50.6C290.141 53.7 291.016 57.275 291.016 61.325ZM280.141 58.325C280.091 55.625 279.116 53.475 277.216 51.875C275.316 50.225 272.991 49.4 270.241 49.4C267.641 49.4 265.441 50.2 263.641 51.8C261.891 53.35 260.816 55.525 260.416 58.325H280.141ZM310.905 50.075V70.175C310.905 71.575 311.23 72.6 311.88 73.25C312.58 73.85 313.73 74.15 315.33 74.15H320.205V83H313.605C304.755 83 300.33 78.7 300.33 70.1V50.075H295.38V41.45H300.33V31.175H310.905V41.45H320.205V50.075H310.905ZM333.083 36.5C331.233 36.5 329.683 35.925 328.433 34.775C327.233 33.575 326.633 32.1 326.633 30.35C326.633 28.6 327.233 27.15 328.433 26C329.683 24.8 331.233 24.2 333.083 24.2C334.933 24.2 336.458 24.8 337.658 26C338.908 27.15 339.533 28.6 339.533 30.35C339.533 32.1 338.908 33.575 337.658 34.775C336.458 35.925 334.933 36.5 333.083 36.5ZM338.258 41.45V83H327.758V41.45H338.258ZM360.857 50.075V70.175C360.857 71.575 361.182 72.6 361.832 73.25C362.532 73.85 363.682 74.15 365.282 74.15H370.157V83H363.557C354.707 83 350.282 78.7 350.282 70.1V50.075H345.332V41.45H350.282V31.175H360.857V41.45H370.157V50.075H360.857ZM383.034 36.5C381.184 36.5 379.634 35.925 378.384 34.775C377.184 33.575 376.584 32.1 376.584 30.35C376.584 28.6 377.184 27.15 378.384 26C379.634 24.8 381.184 24.2 383.034 24.2C384.884 24.2 386.409 24.8 387.609 26C388.859 27.15 389.484 28.6 389.484 30.35C389.484 32.1 388.859 33.575 387.609 34.775C386.409 35.925 384.884 36.5 383.034 36.5ZM388.209 41.45V83H377.709V41.45H388.209ZM417.033 83.675C413.033 83.675 409.433 82.8 406.233 81.05C403.033 79.25 400.508 76.725 398.658 73.475C396.858 70.225 395.958 66.475 395.958 62.225C395.958 57.975 396.883 54.225 398.733 50.975C400.633 47.725 403.208 45.225 406.458 43.475C409.708 41.675 413.333 40.775 417.333 40.775C421.333 40.775 424.958 41.675 428.208 43.475C431.458 45.225 434.008 47.725 435.858 50.975C437.758 54.225 438.708 57.975 438.708 62.225C438.708 66.475 437.733 70.225 435.783 73.475C433.883 76.725 431.283 79.25 427.983 81.05C424.733 82.8 421.083 83.675 417.033 83.675ZM417.033 74.525C418.933 74.525 420.708 74.075 422.358 73.175C424.058 72.225 425.408 70.825 426.408 68.975C427.408 67.125 427.908 64.875 427.908 62.225C427.908 58.275 426.858 55.25 424.758 53.15C422.708 51 420.183 49.925 417.183 49.925C414.183 49.925 411.658 51 409.608 53.15C407.608 55.25 406.608 58.275 406.608 62.225C406.608 66.175 407.583 69.225 409.533 71.375C411.533 73.475 414.033 74.525 417.033 74.525ZM469.435 40.85C474.385 40.85 478.385 42.425 481.435 45.575C484.485 48.675 486.01 53.025 486.01 58.625V83H475.51V60.05C475.51 56.75 474.685 54.225 473.035 52.475C471.385 50.675 469.135 49.775 466.285 49.775C463.385 49.775 461.085 50.675 459.385 52.475C457.735 54.225 456.91 56.75 456.91 60.05V83H446.41V41.45H456.91V46.625C458.31 44.825 460.085 43.425 462.235 42.425C464.435 41.375 466.835 40.85 469.435 40.85Z" fill="white"/>
</svg>
